<svg width="352" height="92" viewBox="0 0 352 92" fill="none" xmlns="http://www.w3.org/2000/svg">
<g clip-path="url(#clip0_1899_2370)">
<path d="M73 0H36.5L0 46H36.5L73 0Z" fill="#A2F3B2"/>
<path d="M73 46H36.5L0 92H36.5L73 46Z" fill="#23B2EF"/>
<path d="M99.2727 63H87.4432V28.0909H99.5114C102.977 28.0909 105.955 28.7898 108.443 30.1875C110.943 31.5739 112.864 33.5682 114.205 36.1705C115.545 38.7727 116.216 41.8864 116.216 45.5114C116.216 49.1477 115.54 52.2727 114.188 54.8864C112.847 57.5 110.909 59.5057 108.375 60.9034C105.852 62.3011 102.818 63 99.2727 63ZM93.767 57.5284H98.9659C101.398 57.5284 103.426 57.0852 105.051 56.1989C106.676 55.3011 107.898 53.9659 108.716 52.1932C109.534 50.4091 109.943 48.1818 109.943 45.5114C109.943 42.8409 109.534 40.625 108.716 38.8636C107.898 37.0909 106.688 35.767 105.085 34.892C103.494 34.0057 101.517 33.5625 99.1534 33.5625H93.767V57.5284ZM124.832 63H118.082L130.372 28.0909H138.179L150.486 63H143.736L134.412 35.25H134.139L124.832 63ZM125.054 49.3125H143.463V54.392H125.054V49.3125ZM184.636 45.5455C184.636 49.3068 183.932 52.5284 182.523 55.2102C181.125 57.8807 179.216 59.9261 176.795 61.3466C174.386 62.767 171.653 63.4773 168.597 63.4773C165.54 63.4773 162.801 62.767 160.381 61.3466C157.972 59.9148 156.063 57.8636 154.653 55.1932C153.256 52.5114 152.557 49.2955 152.557 45.5455C152.557 41.7841 153.256 38.5682 154.653 35.8977C156.063 33.2159 157.972 31.1648 160.381 29.7443C162.801 28.3239 165.54 27.6136 168.597 27.6136C171.653 27.6136 174.386 28.3239 176.795 29.7443C179.216 31.1648 181.125 33.2159 182.523 35.8977C183.932 38.5682 184.636 41.7841 184.636 45.5455ZM178.278 45.5455C178.278 42.8977 177.864 40.6648 177.034 38.8466C176.216 37.017 175.08 35.6364 173.625 34.7045C172.17 33.7614 170.494 33.2898 168.597 33.2898C166.699 33.2898 165.023 33.7614 163.568 34.7045C162.114 35.6364 160.972 37.017 160.142 38.8466C159.324 40.6648 158.915 42.8977 158.915 45.5455C158.915 48.1932 159.324 50.4318 160.142 52.2614C160.972 54.0795 162.114 55.4602 163.568 56.4034C165.023 57.3352 166.699 57.8011 168.597 57.8011C170.494 57.8011 172.17 57.3352 173.625 56.4034C175.08 55.4602 176.216 54.0795 177.034 52.2614C177.864 50.4318 178.278 48.1932 178.278 45.5455ZM209.587 37.6875C209.428 36.1989 208.757 35.0398 207.575 34.2102C206.405 33.3807 204.882 32.9659 203.007 32.9659C201.689 32.9659 200.558 33.1648 199.615 33.5625C198.672 33.9602 197.95 34.5 197.45 35.1818C196.95 35.8636 196.695 36.642 196.683 37.517C196.683 38.2443 196.848 38.875 197.178 39.4091C197.518 39.9432 197.979 40.3977 198.558 40.7727C199.138 41.1364 199.78 41.4432 200.484 41.6932C201.189 41.9432 201.899 42.1534 202.615 42.3239L205.888 43.142C207.206 43.4489 208.473 43.8636 209.689 44.3864C210.916 44.9091 212.013 45.5682 212.979 46.3636C213.956 47.1591 214.729 48.1193 215.297 49.2443C215.865 50.3693 216.149 51.6875 216.149 53.1989C216.149 55.2443 215.626 57.0455 214.581 58.6023C213.536 60.1477 212.024 61.358 210.047 62.233C208.081 63.0966 205.7 63.5284 202.905 63.5284C200.189 63.5284 197.831 63.108 195.831 62.267C193.842 61.4261 192.286 60.1989 191.161 58.5852C190.047 56.9716 189.445 55.0057 189.354 52.6875H195.575C195.666 53.9034 196.041 54.9148 196.7 55.7216C197.359 56.5284 198.217 57.1307 199.274 57.5284C200.342 57.9261 201.536 58.125 202.854 58.125C204.229 58.125 205.433 57.9205 206.467 57.5114C207.513 57.0909 208.331 56.5114 208.922 55.7727C209.513 55.0227 209.814 54.1477 209.825 53.1477C209.814 52.2386 209.547 51.4886 209.024 50.8977C208.501 50.2955 207.768 49.7955 206.825 49.3977C205.893 48.9886 204.803 48.625 203.553 48.3068L199.581 47.2841C196.706 46.5455 194.433 45.4261 192.763 43.9261C191.104 42.4148 190.274 40.4091 190.274 37.9091C190.274 35.8523 190.831 34.0511 191.945 32.5057C193.07 30.9602 194.598 29.7614 196.53 28.9091C198.462 28.0455 200.649 27.6136 203.092 27.6136C205.57 27.6136 207.74 28.0455 209.604 28.9091C211.479 29.7614 212.95 30.9489 214.018 32.4716C215.087 33.983 215.638 35.7216 215.672 37.6875H209.587ZM251.668 39.8693H245.293C245.111 38.8239 244.776 37.8977 244.287 37.0909C243.798 36.2727 243.19 35.5795 242.463 35.0114C241.736 34.4432 240.906 34.017 239.974 33.733C239.054 33.4375 238.06 33.2898 236.991 33.2898C235.094 33.2898 233.412 33.767 231.946 34.7216C230.48 35.6648 229.332 37.0511 228.503 38.8807C227.673 40.6989 227.259 42.9205 227.259 45.5455C227.259 48.2159 227.673 50.4659 228.503 52.2955C229.344 54.1136 230.491 55.4886 231.946 56.4205C233.412 57.3409 235.088 57.8011 236.974 57.8011C238.02 57.8011 238.997 57.6648 239.906 57.392C240.827 57.108 241.651 56.6932 242.378 56.1477C243.116 55.6023 243.736 54.9318 244.236 54.1364C244.747 53.3409 245.099 52.4318 245.293 51.4091L251.668 51.4432C251.429 53.1023 250.912 54.6591 250.116 56.1136C249.332 57.5682 248.304 58.8523 247.031 59.9659C245.759 61.0682 244.27 61.9318 242.565 62.5568C240.861 63.1705 238.969 63.4773 236.889 63.4773C233.821 63.4773 231.082 62.767 228.673 61.3466C226.264 59.9261 224.366 57.875 222.98 55.1932C221.594 52.5114 220.901 49.2955 220.901 45.5455C220.901 41.7841 221.599 38.5682 222.997 35.8977C224.395 33.2159 226.298 31.1648 228.707 29.7443C231.116 28.3239 233.844 27.6136 236.889 27.6136C238.832 27.6136 240.639 27.8864 242.31 28.4318C243.98 28.9773 245.469 29.7784 246.776 30.8352C248.082 31.8807 249.156 33.1648 249.997 34.6875C250.849 36.1989 251.406 37.9261 251.668 39.8693ZM288.652 45.5455C288.652 49.3068 287.947 52.5284 286.538 55.2102C285.141 57.8807 283.232 59.9261 280.811 61.3466C278.402 62.767 275.669 63.4773 272.612 63.4773C269.555 63.4773 266.817 62.767 264.396 61.3466C261.987 59.9148 260.078 57.8636 258.669 55.1932C257.271 52.5114 256.572 49.2955 256.572 45.5455C256.572 41.7841 257.271 38.5682 258.669 35.8977C260.078 33.2159 261.987 31.1648 264.396 29.7443C266.817 28.3239 269.555 27.6136 272.612 27.6136C275.669 27.6136 278.402 28.3239 280.811 29.7443C283.232 31.1648 285.141 33.2159 286.538 35.8977C287.947 38.5682 288.652 41.7841 288.652 45.5455ZM282.294 45.5455C282.294 42.8977 281.879 40.6648 281.05 38.8466C280.232 37.017 279.095 35.6364 277.641 34.7045C276.186 33.7614 274.51 33.2898 272.612 33.2898C270.714 33.2898 269.038 33.7614 267.584 34.7045C266.129 35.6364 264.987 37.017 264.158 38.8466C263.339 40.6648 262.93 42.8977 262.93 45.5455C262.93 48.1932 263.339 50.4318 264.158 52.2614C264.987 54.0795 266.129 55.4602 267.584 56.4034C269.038 57.3352 270.714 57.8011 272.612 57.8011C274.51 57.8011 276.186 57.3352 277.641 56.4034C279.095 55.4602 280.232 54.0795 281.05 52.2614C281.879 50.4318 282.294 48.1932 282.294 45.5455ZM294.631 63V28.0909H307.722C310.403 28.0909 312.653 28.5909 314.472 29.5909C316.301 30.5909 317.682 31.9659 318.614 33.7159C319.557 35.4545 320.028 37.4318 320.028 39.6477C320.028 41.8864 319.557 43.875 318.614 45.6136C317.67 47.3523 316.278 48.7216 314.438 49.7216C312.597 50.7102 310.33 51.2045 307.636 51.2045H298.96V46.0057H306.784C308.352 46.0057 309.636 45.733 310.636 45.1875C311.636 44.642 312.375 43.892 312.852 42.9375C313.341 41.983 313.585 40.8864 313.585 39.6477C313.585 38.4091 313.341 37.3182 312.852 36.375C312.375 35.4318 311.631 34.6989 310.619 34.1761C309.619 33.642 308.33 33.375 306.75 33.375H300.955V63H294.631ZM325.521 63V28.0909H348.226V33.392H331.845V42.8693H347.05V48.1705H331.845V57.6989H348.362V63H325.521Z" fill="black"/>
</g>
<defs>
<clipPath id="clip0_1899_2370">
<rect width="352" height="92" fill="white"/>
</clipPath>
</defs>
</svg>
